<svg width="54" height="55" viewBox="0 0 54 55" fill="none" xmlns="http://www.w3.org/2000/svg">
<path d="M42.3066 0.139648L53.0869 11.3772V54.1107H12.8159V54.2502H53.2244V11.5186L42.3066 0.139648Z" fill="#909090"/>
<path d="M42.1738 0H12.6792V54.1105H53.0877V11.3789L42.1738 0Z" fill="#F4F4F4"/>
<path d="M12.3801 2.90625H-0.000488281V16.1336H38.9433V2.90625H12.3801Z" fill="#7A7B7C"/>
<path d="M39.1526 15.9089H0.253418V2.67188H39.1526V15.9089Z" fill="#DD2025"/>
<path d="M13.1529 4.90967H13.0948H12.6937H10.6206V14.2097H12.6124V11.0729L13.0522 11.098C13.4795 11.0907 13.9029 11.0141 14.3057 10.8714C14.6589 10.7499 14.9839 10.5581 15.2609 10.3075C15.5428 10.0689 15.7651 9.76767 15.91 9.42792C16.1043 8.86313 16.1737 8.2629 16.1134 7.66867C16.1013 7.24418 16.0269 6.82377 15.8925 6.42092C15.7702 6.13011 15.5887 5.86796 15.3596 5.65114C15.1304 5.43431 14.8586 5.26758 14.5615 5.16154C14.3046 5.06854 14.0392 5.00105 13.769 4.96004C13.5645 4.92848 13.3579 4.91165 13.151 4.90967M12.7848 9.35429H12.6124V6.48679H12.9863C13.1513 6.47489 13.3169 6.50023 13.4709 6.56093C13.6248 6.62163 13.7631 6.71614 13.8756 6.83748C14.1087 7.14945 14.2333 7.52917 14.2302 7.91861C14.2302 8.39523 14.2302 8.82729 13.8 9.13148C13.4902 9.30191 13.1375 9.38058 12.7848 9.35429Z" fill="#464648"/>
<path d="M19.895 4.88452C19.6799 4.88452 19.4707 4.90002 19.3234 4.90583L18.8623 4.91746H17.3511V14.2175H19.1297C19.8094 14.2361 20.4862 14.1209 21.1214 13.8784C21.6328 13.6756 22.0856 13.3486 22.4389 12.9271C22.7826 12.5017 23.0292 12.0065 23.1616 11.4759C23.3139 10.875 23.3881 10.257 23.3825 9.63721C23.4201 8.90514 23.3634 8.17127 23.2139 7.45365C23.0721 6.92541 22.8064 6.43857 22.4389 6.03346C22.1506 5.70634 21.7977 5.44246 21.4024 5.25846C21.0629 5.10136 20.7058 4.98557 20.3387 4.91358C20.1927 4.88947 20.0449 4.87845 19.8969 4.88065M19.5443 12.5086H19.3506V6.57208H19.3758C19.7752 6.52612 20.1793 6.5982 20.5383 6.7794C20.8011 6.98928 21.0153 7.25369 21.166 7.5544C21.3287 7.87086 21.4224 8.21819 21.4411 8.57352C21.4586 8.99977 21.4411 9.34852 21.4411 9.63721C21.449 9.96975 21.4276 10.3024 21.3772 10.6311C21.3175 10.9687 21.2071 11.2953 21.0498 11.5999C20.8717 11.8831 20.6311 12.1217 20.3464 12.2974C20.1074 12.452 19.8243 12.5241 19.5404 12.5028" fill="#464648"/>
<path d="M29.3834 4.91748H24.6753V14.2175H26.667V10.5285H29.1858V8.80023H26.667V6.64573H29.3795V4.91748" fill="#464648"/>
<path d="M37.8151 35.3692C37.8151 35.3692 43.9918 34.2493 43.9918 36.3592C43.9918 38.4692 40.1653 37.6109 37.8151 35.3692ZM33.2484 35.53C32.267 35.7468 31.3107 36.0643 30.3945 36.4774L31.1695 34.7337C31.9445 32.9899 32.7485 30.6126 32.7485 30.6126C33.6733 32.1691 34.7493 33.6306 35.9609 34.9759C35.0472 35.1121 34.1417 35.2984 33.2484 35.5339V35.53ZM30.8033 22.9362C30.8033 21.0975 31.3981 20.5957 31.8611 20.5957C32.3242 20.5957 32.8454 20.8185 32.8628 22.415C32.712 24.0204 32.3758 25.6029 31.8611 27.1309C31.1561 25.848 30.7913 24.4059 30.8013 22.942L30.8033 22.9362ZM21.7958 43.311C19.901 42.1775 25.7696 38.6881 26.8333 38.5757C26.8275 38.5777 23.7798 44.4967 21.7958 43.311ZM45.7956 36.6092C45.7763 36.4154 45.6019 34.2706 41.785 34.3617C40.1941 34.336 38.6039 34.4482 37.0323 34.6969C35.51 33.1631 34.199 31.4332 33.1341 29.5528C33.805 27.6142 34.211 25.5938 34.3411 23.5465C34.285 21.2215 33.7289 19.8885 31.9464 19.9079C30.1639 19.9273 29.9043 21.487 30.1387 23.8081C30.3684 25.3679 30.8015 26.8908 31.4271 28.338C31.4271 28.338 30.6037 30.9013 29.5148 33.451C28.426 36.0008 27.682 37.3377 27.682 37.3377C25.7885 37.9541 24.006 38.8698 22.4023 40.0502C20.8058 41.5362 20.1567 42.6774 20.9976 43.8186C21.7222 44.8029 24.2584 45.0257 26.5253 42.0555C27.7297 40.5214 28.8301 38.9084 29.819 37.2272C29.819 37.2272 33.2755 36.2798 34.3508 36.0202C35.4261 35.7605 36.7262 35.5552 36.7262 35.5552C36.7262 35.5552 39.8824 38.7307 42.9262 38.6184C45.97 38.506 45.8228 36.799 45.8034 36.613" fill="#DD2025"/>
<path d="M42.0229 0.149414V11.5284H52.9369L42.0229 0.149414Z" fill="#909090"/>
<path d="M42.1714 0V11.3789H53.0853L42.1714 0Z" fill="#F4F4F4"/>
<path d="M13.0006 4.76025H12.9424H12.5414H10.4683V14.0603H12.4678V10.9254L12.9095 10.9506C13.3369 10.9432 13.7602 10.8667 14.1631 10.7239C14.5163 10.6023 14.8412 10.4106 15.1183 10.1601C15.398 9.92076 15.6183 9.61961 15.7615 9.28044C15.9558 8.71566 16.0252 8.11542 15.9649 7.52119C15.9528 7.0967 15.8784 6.67629 15.7441 6.27344C15.6218 5.98264 15.4403 5.72048 15.2111 5.50366C14.9819 5.28684 14.7101 5.1201 14.413 5.01407C14.1549 4.92016 13.8882 4.85201 13.6167 4.81063C13.4121 4.77907 13.2056 4.76223 12.9986 4.76025M12.6324 9.20488H12.46V6.33738H12.8359C13.0009 6.32548 13.1665 6.35081 13.3205 6.41151C13.4744 6.47221 13.6127 6.56673 13.7252 6.68807C13.9583 7.00003 14.0828 7.37976 14.0798 7.76919C14.0798 8.24582 14.0798 8.67788 13.6496 8.98207C13.3398 9.1525 12.9871 9.22923 12.6344 9.20294" fill="white"/>
<path d="M19.7447 4.73511C19.5296 4.73511 19.3204 4.75061 19.1731 4.75642L18.7178 4.76804H17.2065V14.068H18.9852C19.6649 14.0867 20.3416 13.9715 20.9769 13.729C21.4882 13.5262 21.941 13.1992 22.2944 12.7777C22.6381 12.3523 22.8847 11.857 23.0171 11.3265C23.1693 10.7256 23.2436 10.1076 23.238 9.48779C23.2756 8.75572 23.2189 8.02186 23.0694 7.30423C22.9276 6.776 22.6619 6.28916 22.2944 5.88404C22.0061 5.55692 21.6532 5.29305 21.2579 5.10904C20.9184 4.95195 20.5613 4.83616 20.1942 4.76417C20.0482 4.74006 19.9004 4.72903 19.7524 4.73123M19.3998 12.3592H19.206V6.42267H19.2312C19.6307 6.37671 20.0348 6.44878 20.3937 6.62998C20.6566 6.83986 20.8708 7.10428 21.0215 7.40498C21.1841 7.72144 21.2779 8.06878 21.2966 8.42411C21.314 8.85036 21.2966 9.19911 21.2966 9.48779C21.3045 9.82034 21.2831 10.1529 21.2327 10.4817C21.173 10.8193 21.0626 11.1459 20.9052 11.4505C20.7272 11.7337 20.4866 11.9723 20.2019 12.148C19.9629 12.3026 19.6798 12.3747 19.3959 12.3534" fill="white"/>
<path d="M29.235 4.76807H24.5269V14.0681H26.5186V10.3791H29.0374V8.65082H26.5186V6.49632H29.2311V4.76807" fill="white"/>
</svg>
